<svg width="81" height="79" viewBox="0 0 81 79" fill="none" xmlns="http://www.w3.org/2000/svg">
<rect width="81" height="79" rx="5.67837" fill="#CF3700"/>
<path d="M24.0565 63.9803L23.6579 63.1588H30.3162V65.0001H22.0453V63.2438L27.8558 56.6715L28.2544 57.493H22.1383V55.6516H30.3162V57.408L24.0565 63.9803Z" fill="white"/>
<path d="M36.0623 44.6982C36.9645 44.6982 37.7405 44.8899 38.3902 45.2732C39.0488 45.6471 39.5541 46.1893 39.906 46.8998C40.2579 47.6103 40.4338 48.4657 40.4338 49.466C40.4338 50.4663 40.2579 51.3217 39.906 52.0322C39.5541 52.7427 39.0488 53.2895 38.3902 53.6728C37.7405 54.0468 36.9645 54.2338 36.0623 54.2338C35.16 54.2338 34.3795 54.0468 33.7208 53.6728C33.0622 53.2895 32.5569 52.7427 32.205 52.0322C31.8531 51.3217 31.6772 50.4663 31.6772 49.466C31.6772 48.4657 31.8531 47.6103 32.205 46.8998C32.5569 46.1893 33.0622 45.6471 33.7208 45.2732C34.3795 44.8899 35.16 44.6982 36.0623 44.6982ZM36.0623 46.5913C35.6292 46.5913 35.2637 46.6988 34.966 46.9138C34.6682 47.1289 34.4427 47.4514 34.2893 47.8814C34.1359 48.3021 34.0592 48.8303 34.0592 49.466C34.0592 50.0923 34.1359 50.6205 34.2893 51.0506C34.4427 51.4806 34.6682 51.8031 34.966 52.0181C35.2637 52.2332 35.6292 52.3407 36.0623 52.3407C36.4954 52.3407 36.8563 52.2332 37.145 52.0181C37.4428 51.8031 37.6683 51.4806 37.8217 51.0506C37.9751 50.6205 38.0518 50.0923 38.0518 49.466C38.0518 48.8303 37.9751 48.3021 37.8217 47.8814C37.6683 47.4514 37.4428 47.1289 37.145 46.9138C36.8563 46.6988 36.4954 46.5913 36.0623 46.5913Z" fill="white"/>
<path d="M30.3478 44.8385V54.0935H28.0199V44.8385H30.3478ZM24.6093 44.8385V54.0935H22.2814V44.8385H24.6093ZM29.2651 48.4984V50.3635H23.4183V48.4984H29.2651Z" fill="white"/>
<path d="M36.0623 55.6049C36.9645 55.6049 37.7405 55.7965 38.3902 56.1798C39.0488 56.5537 39.5541 57.096 39.906 57.8064C40.2579 58.5169 40.4338 59.3723 40.4338 60.3726C40.4338 61.3729 40.2579 62.2283 39.906 62.9388C39.5541 63.6493 39.0488 64.1962 38.3902 64.5795C37.7405 64.9534 36.9645 65.1404 36.0623 65.1404C35.16 65.1404 34.3795 64.9534 33.7208 64.5795C33.0622 64.1962 32.5569 63.6493 32.205 62.9388C31.8531 62.2283 31.6772 61.3729 31.6772 60.3726C31.6772 59.3723 31.8531 58.5169 32.205 57.8064C32.5569 57.096 33.0622 56.5537 33.7208 56.1798C34.3795 55.7965 35.16 55.6049 36.0623 55.6049ZM36.0623 57.4979C35.6292 57.4979 35.2637 57.6055 34.966 57.8205C34.6682 58.0355 34.4427 58.358 34.2893 58.788C34.1359 59.2087 34.0592 59.7369 34.0592 60.3726C34.0592 60.999 34.1359 61.5272 34.2893 61.9572C34.4427 62.3872 34.6682 62.7098 34.966 62.9248C35.2637 63.1398 35.6292 63.2473 36.0623 63.2473C36.4954 63.2473 36.8563 63.1398 37.145 62.9248C37.4428 62.7098 37.6683 62.3872 37.8217 61.9572C37.9751 61.5272 38.0518 60.999 38.0518 60.3726C38.0518 59.7369 37.9751 59.2087 37.8217 58.788C37.6683 58.358 37.4428 58.0355 37.145 57.8205C36.8563 57.6055 36.4954 57.4979 36.0623 57.4979Z" fill="white"/>
<path d="M46.0942 44.8385C47.1588 44.8385 47.9844 45.1002 48.5709 45.6237C49.1664 46.1379 49.4642 46.825 49.4642 47.6851C49.4642 48.6293 49.1709 49.3491 48.5845 49.8446C47.998 50.3401 47.1724 50.5878 46.1077 50.5878L45.8911 50.714H44.1182V54.0935H41.8309V44.8385H46.0942ZM45.7693 49.0032C46.2205 49.0032 46.5588 48.9098 46.7844 48.7228C47.01 48.5358 47.1228 48.2367 47.1228 47.8253C47.1228 47.4233 47.01 47.1289 46.7844 46.9419C46.5588 46.7549 46.2205 46.6614 45.7693 46.6614H44.1182V49.0032H45.7693ZM47.1363 49.5081L49.992 54.0935H47.4205L45.1332 50.0409L47.1363 49.5081Z" fill="white"/>
<path d="M55.0974 44.6982C55.9275 44.6982 56.6584 44.8338 57.29 45.1049C57.9306 45.3667 58.4855 45.7546 58.9547 46.2688L57.8314 47.8253C57.4434 47.4046 57.0238 47.0915 56.5727 46.8858C56.1306 46.6708 55.6253 46.5633 55.0568 46.5633C54.723 46.5633 54.4523 46.6007 54.2448 46.6755C54.0373 46.7502 53.8884 46.8531 53.7981 46.984C53.7079 47.1148 53.6628 47.2644 53.6628 47.4327C53.6628 47.629 53.7485 47.7973 53.92 47.9375C54.1004 48.0684 54.3891 48.1806 54.7861 48.2741L56.2885 48.6246C57.1817 48.8396 57.8359 49.1528 58.2509 49.5642C58.666 49.9755 58.8735 50.5224 58.8735 51.2048C58.8735 51.8592 58.7111 52.4155 58.3863 52.8735C58.0614 53.3223 57.6148 53.6635 57.0464 53.8972C56.4779 54.1216 55.8283 54.2338 55.0974 54.2338C54.5019 54.2338 53.9335 54.1683 53.3921 54.0374C52.8507 53.8972 52.3635 53.7009 51.9304 53.4485C51.4973 53.1961 51.1319 52.9063 50.8341 52.5791L51.9575 50.9664C52.1831 51.2375 52.4583 51.4806 52.7831 51.6956C53.1169 51.9013 53.4778 52.0649 53.8658 52.1864C54.2628 52.308 54.6643 52.3687 55.0704 52.3687C55.3862 52.3687 55.6478 52.336 55.8554 52.2706C56.0719 52.2051 56.2298 52.107 56.3291 51.9761C56.4283 51.8452 56.4779 51.6909 56.4779 51.5133C56.4779 51.317 56.4103 51.1534 56.2749 51.0225C56.1396 50.8823 55.8824 50.7654 55.5035 50.672L53.8523 50.2933C53.347 50.1718 52.8959 50.0129 52.4989 49.8166C52.1109 49.6109 51.8041 49.3398 51.5785 49.0032C51.353 48.6573 51.2402 48.2273 51.2402 47.7131C51.2402 47.1335 51.3936 46.6194 51.7003 46.1706C52.0071 45.7126 52.4492 45.3526 53.0267 45.0909C53.6042 44.8291 54.2944 44.6982 55.0974 44.6982Z" fill="white"/>
<path d="M49.8837 55.7451V65.0001H47.2987L44.5242 59.994L43.8475 58.6198H43.8339L43.8881 60.3306V65.0001H41.8309V55.7451H44.4159L47.1904 60.7512L47.8671 62.1255H47.8807L47.8265 60.4147V55.7451H49.8837Z" fill="white"/>
<path d="M51.7455 65.0002V55.7452H58.5622V57.6102H53.9335V59.4893H57.6148V61.2421H53.9335V63.1352H58.7381V65.0002H51.7455Z" fill="white"/>
<path d="M9.10132 22.366C16.9762 22.6242 34.2171 26.9555 40.1814 42.2147C42.376 35.2435 53.387 20.1972 64.0762 22.366" stroke="white" stroke-linecap="round" stroke-linejoin="round"/>
<circle cx="67.1082" cy="22.1543" r="2" fill="white"/>
</svg>
