<svg width="18" height="21" viewBox="0 0 18 21" fill="none" xmlns="http://www.w3.org/2000/svg">
<path d="M16.6378 5.48332C14.0162 5.20832 11.3788 5.06665 8.7493 5.06665C7.19048 5.06665 5.63167 5.14998 4.07285 5.31665L2.4668 5.48332" stroke="#696969" stroke-width="1.25" stroke-linecap="round" stroke-linejoin="round"/>
<path d="M6.79736 4.64175L6.97057 3.55008C7.09653 2.75841 7.191 2.16675 8.52151 2.16675H10.5842C11.9147 2.16675 12.017 2.79175 12.1351 3.55841L12.3083 4.64175" stroke="#696969" stroke-width="1.25" stroke-linecap="round" stroke-linejoin="round"/>
<path d="M14.9464 8.1167L14.4347 16.5084C14.3481 17.8167 14.2772 18.8334 12.0807 18.8334H7.02635C4.82983 18.8334 4.75898 17.8167 4.67238 16.5084L4.16064 8.1167" stroke="#696969" stroke-width="1.25" stroke-linecap="round" stroke-linejoin="round"/>
<path d="M8.23779 14.25H10.8594" stroke="#696969" stroke-width="1.25" stroke-linecap="round" stroke-linejoin="round"/>
<path d="M7.58398 10.9167H11.5204" stroke="#696969" stroke-width="1.25" stroke-linecap="round" stroke-linejoin="round"/>
</svg>
