<svg width="30" height="30" viewBox="0 0 30 30" fill="none" xmlns="http://www.w3.org/2000/svg">
<path d="M21.8571 24.2858C21.8571 22.3535 21.0895 20.5004 19.7231 19.1341C18.3568 17.7677 16.5037 17.0001 14.5714 17.0001C12.6391 17.0001 10.7859 17.7677 9.41958 19.1341C8.05324 20.5004 7.28564 22.3535 7.28564 24.2858" stroke="white" stroke-width="2.42857" stroke-linecap="round" stroke-linejoin="round"/>
<path d="M14.5714 17.0001C17.2539 17.0001 19.4285 14.8254 19.4285 12.1429C19.4285 9.46038 17.2539 7.28577 14.5714 7.28577C11.8889 7.28577 9.71423 9.46038 9.71423 12.1429C9.71423 14.8254 11.8889 17.0001 14.5714 17.0001Z" stroke="white" stroke-width="2.42857" stroke-linecap="round" stroke-linejoin="round"/>
<path d="M14.5714 26.7144C21.2778 26.7144 26.7143 21.2779 26.7143 14.5716C26.7143 7.86525 21.2778 2.42871 14.5714 2.42871C7.86513 2.42871 2.42859 7.86525 2.42859 14.5716C2.42859 21.2779 7.86513 26.7144 14.5714 26.7144Z" stroke="white" stroke-width="2.42857" stroke-linecap="round" stroke-linejoin="round"/>
</svg>
